<svg width="82" height="82" viewBox="0 0 82 82" fill="none" xmlns="http://www.w3.org/2000/svg">
<path d="M67.749 22.591L48.889 3.67976C47.8905 2.65068 46.6956 1.83255 45.3751 1.27385C44.0546 0.715157 42.6353 0.427277 41.2015 0.427277C39.7676 0.427277 38.3484 0.715157 37.0279 1.27385C35.7073 1.83255 34.5124 2.65068 33.514 3.67976L14.5959 22.591L41.0922 35.8135L67.749 22.591ZM74.9821 30.2273L78.7233 33.9685C79.7588 34.9633 80.5827 36.157 81.1455 37.478C81.7082 38.799 81.9983 40.2201 81.9983 41.656C81.9983 43.0919 81.7082 44.513 81.1455 45.834C80.5827 47.155 79.7588 48.3488 78.7233 49.3435L48.5849 79.7792C47.8699 80.5092 47.0386 81.1154 46.1249 81.5729V44.6798L74.9821 30.2273ZM7.01432 30.2273L3.27307 33.9685C2.23756 34.9633 1.4137 36.157 0.850919 37.478C0.288141 38.799 -0.00195312 40.2201 -0.00195312 41.656C-0.00195312 43.0919 0.288141 44.513 0.850919 45.834C1.4137 47.155 2.23756 48.3488 3.27307 49.3435L33.4149 79.7792C34.1324 80.5103 34.9627 81.1185 35.8749 81.5729V44.6798L7.01432 30.2273Z" fill="#6468A6"/>
</svg>
