<svg width="74" height="62" viewBox="0 0 74 62" fill="none" xmlns="http://www.w3.org/2000/svg">
<path d="M45.4938 0.738591C46.3658 0.983875 47.1048 1.56545 47.5482 2.35544C47.9915 3.14544 48.103 4.07917 47.8581 4.95134L32.7223 58.8937C32.6011 59.3258 32.3961 59.7298 32.1188 60.0826C31.8415 60.4354 31.4975 60.7302 31.1063 60.95C30.7151 61.1699 30.2844 61.3106 29.8389 61.364C29.3933 61.4174 28.9416 61.3826 28.5095 61.2614C28.0774 61.1403 27.6734 60.9352 27.3206 60.6579C26.9678 60.3807 26.673 60.0366 26.4531 59.6454C26.2333 59.2542 26.0926 58.8236 26.0392 58.378C25.9858 57.9325 26.0206 57.4808 26.1418 57.0487L41.2776 3.10634C41.3987 2.67385 41.6038 2.26948 41.8813 1.91634C42.1588 1.56321 42.5032 1.26825 42.8948 1.04834C43.2864 0.828429 43.7175 0.687878 44.1634 0.634728C44.6094 0.581578 45.0615 0.616872 45.4938 0.738591ZM20.6238 14.0875C21.2644 14.7282 21.6242 15.5971 21.6242 16.5031C21.6242 17.4091 21.2644 18.278 20.6238 18.9187L8.54593 31L20.6238 43.0779C20.9413 43.3951 21.1931 43.7718 21.365 44.1863C21.5369 44.6009 21.6255 45.0452 21.6256 45.494C21.6258 45.9428 21.5375 46.3872 21.366 46.8019C21.1944 47.2165 20.9428 47.5934 20.6256 47.9108C20.3083 48.2282 19.9317 48.4801 19.5171 48.652C19.1026 48.8239 18.6582 48.9124 18.2095 48.9126C17.7607 48.9127 17.3163 48.8245 16.9016 48.6529C16.4869 48.4813 16.1101 48.2297 15.7927 47.9125L1.29576 33.4156C0.655237 32.7749 0.29541 31.906 0.29541 31C0.29541 30.094 0.655237 29.2251 1.29576 28.5844L15.7927 14.0875C16.4334 13.447 17.3023 13.0872 18.2083 13.0872C19.1142 13.0872 19.9831 13.447 20.6238 14.0875ZM53.376 18.9187C53.0497 18.6035 52.7894 18.2265 52.6103 17.8096C52.4313 17.3928 52.337 16.9445 52.3331 16.4908C52.3291 16.0371 52.4156 15.5872 52.5874 15.1673C52.7592 14.7474 53.0129 14.366 53.3337 14.0452C53.6545 13.7244 54.0359 13.4707 54.4558 13.2989C54.8757 13.1271 55.3256 13.0406 55.7793 13.0446C56.233 13.0485 56.6813 13.1428 57.0981 13.3218C57.515 13.5009 57.892 13.7612 58.2072 14.0875L72.7041 28.5844C73.3446 29.2251 73.7045 30.094 73.7045 31C73.7045 31.906 73.3446 32.7749 72.7041 33.4156L58.2072 47.9125C57.5661 48.5532 56.6967 48.9129 55.7904 48.9126C54.8841 48.9123 54.015 48.5519 53.3743 47.9108C52.7337 47.2697 52.3739 46.4003 52.3742 45.494C52.3746 44.5877 52.7349 43.7186 53.376 43.0779L65.4539 31L53.376 18.9187Z" fill="#6468A6"/>
</svg>
