<svg width="82" height="82" viewBox="0 0 82 82" fill="none" xmlns="http://www.w3.org/2000/svg">
<path d="M0 8.96875C0 4.018 4.018 0 8.96875 0H73.0312C77.982 0 82 4.018 82 8.96875V19.2188C82 20.2382 81.595 21.2158 80.8742 21.9367C80.1533 22.6575 79.1757 23.0625 78.1562 23.0625C77.1368 23.0625 76.1592 22.6575 75.4383 21.9367C74.7175 21.2158 74.3125 20.2382 74.3125 19.2188V8.96875C74.3125 8.62894 74.1775 8.30305 73.9372 8.06277C73.697 7.82249 73.3711 7.6875 73.0312 7.6875H8.96875C8.62894 7.6875 8.30305 7.82249 8.06277 8.06277C7.82249 8.30305 7.6875 8.62894 7.6875 8.96875V73.0312C7.6875 73.7385 8.2615 74.3125 8.96875 74.3125H78.1562C79.1757 74.3125 80.1533 74.7175 80.8742 75.4383C81.595 76.1592 82 77.1368 82 78.1562C82 79.1757 81.595 80.1533 80.8742 80.8742C80.1533 81.595 79.1757 82 78.1562 82H8.96875C6.59009 82 4.30885 81.0551 2.62689 79.3731C0.944919 77.6911 0 75.4099 0 73.0312L0 8.96875ZM42.2812 29.4688C43.3007 29.4688 44.2783 29.8737 44.9992 30.5946C45.72 31.3154 46.125 32.2931 46.125 33.3125V53.8125C46.125 58.9631 44.7105 62.8223 41.7944 65.2515C39.0115 67.5731 35.6393 67.9062 33.3125 67.9062C32.2931 67.9062 31.3154 67.5013 30.5946 66.7804C29.8737 66.0596 29.4688 65.0819 29.4688 64.0625C29.4688 63.0431 29.8737 62.0654 30.5946 61.3446C31.3154 60.6237 32.2931 60.2188 33.3125 60.2188C35.0858 60.2188 36.1979 59.9113 36.8744 59.3475C37.4176 58.8965 38.4375 57.6306 38.4375 53.8125V33.3125C38.4375 32.2931 38.8425 31.3154 39.5633 30.5946C40.2841 29.8737 41.2618 29.4688 42.2812 29.4688ZM57.7895 33.7225C59.9318 31.1702 63.2989 29.4688 67.9062 29.4688C72.1856 29.4688 75.4144 30.9345 77.5925 33.2356C78.2675 33.9808 78.6236 34.9607 78.5846 35.9653C78.5455 36.97 78.1144 37.9193 77.3837 38.6098C76.6529 39.3004 75.6807 39.6771 74.6755 39.6592C73.6702 39.6414 72.712 39.2304 72.0062 38.5144C71.4425 37.9199 70.315 37.1562 67.9062 37.1562C65.3438 37.1562 64.2162 38.0173 63.673 38.6681C63.1303 39.3279 62.8172 40.1465 62.7812 41C62.7812 41.533 63.0016 42.5375 63.673 43.3319C64.2214 43.9827 65.3386 44.8438 67.9062 44.8438C68.2958 44.8438 68.6699 44.9001 69.0235 45.0077C72.4214 45.4895 74.989 47.0065 76.7418 49.0975C78.761 51.5062 79.4375 54.3455 79.4375 56.375C79.4375 58.4045 78.761 61.2438 76.7418 63.6525C74.5995 66.2048 71.2324 67.9062 66.625 67.9062C62.3456 67.9062 59.1169 66.4405 56.9387 64.1394C56.2638 63.3942 55.9076 62.4143 55.9467 61.4097C55.9857 60.405 56.4168 59.4557 57.1476 58.7651C57.8783 58.0746 58.8505 57.6979 59.8558 57.7158C60.861 57.7336 61.8192 58.1446 62.525 58.8606C63.0887 59.4551 64.2162 60.2188 66.625 60.2188C69.1875 60.2188 70.315 59.3577 70.8583 58.7069C71.401 58.0471 71.714 57.2285 71.75 56.375C71.75 55.842 71.5296 54.8375 70.8583 54.0431C70.3099 53.3923 69.1926 52.5312 66.625 52.5312C66.2465 52.532 65.87 52.4768 65.5078 52.3673C62.1099 51.8804 59.5423 50.3685 57.7895 48.2775C56.0819 46.2332 55.13 43.6634 55.0938 41C55.0938 38.9705 55.7702 36.1312 57.7895 33.7225Z" fill="#6468A6"/>
</svg>
