<svg width="84" height="84" viewBox="0 0 84 84" fill="none" xmlns="http://www.w3.org/2000/svg">
<path d="M17.3226 22.4749C31.0211 24.648 39.1847 29.1949 42 31.8067C44.8153 29.1949 52.9789 24.648 66.682 22.4749C73.6201 21.372 77.0914 20.8226 80.0434 22.9342C83 25.0416 83 28.4692 83 35.3245V59.9536C83 66.2226 83 69.355 81.1049 71.3107C79.2052 73.2665 75.0323 73.9307 66.682 75.255C59.2337 76.4358 53.4253 78.3177 49.2206 80.2079C45.0796 82.0693 43.0113 83 42 83C40.9887 83 38.9159 82.0693 34.7794 80.212C30.5747 78.3177 24.7663 76.4358 17.3226 75.2509C8.96767 73.9307 4.79478 73.2665 2.89511 71.3107C0.995444 69.355 1 66.2226 1 59.9536V35.3245C1 28.4692 1 25.0416 3.95656 22.9342C6.90856 20.8226 10.3799 21.3761 17.318 22.4749M42 29.6993V83V29.6993ZM26.0556 5.34081C30.7774 2.50356 36.3294 0.992727 42.0069 1.00003C47.6844 1.00733 53.2316 2.53243 57.9444 5.38181M49.3891 15.349C47.1633 14.1321 44.6106 13.4851 42.0063 13.4779C39.402 13.4707 36.845 14.1035 34.6109 15.308" fill="#6468A6"/>
<path d="M17.3226 22.4749C31.0211 24.648 39.1847 29.1949 42 31.8067C44.8153 29.1949 52.9789 24.648 66.682 22.4749C73.6201 21.372 77.0914 20.8226 80.0434 22.9342C83 25.0416 83 28.4692 83 35.3245V59.9536C83 66.2226 83 69.355 81.1049 71.3107C79.2052 73.2665 75.0323 73.9307 66.682 75.255C59.2337 76.4358 53.4253 78.3177 49.2206 80.2079C45.0796 82.0693 43.0113 83 42 83M42 83C40.9887 83 38.9159 82.0693 34.7794 80.212C30.5747 78.3177 24.7663 76.4358 17.3226 75.2509C8.96767 73.9307 4.79478 73.2665 2.89511 71.3107C0.995444 69.355 1 66.2226 1 59.9536V35.3245C1 28.4692 1 25.0416 3.95656 22.9342C6.90855 20.8226 10.3799 21.3761 17.318 22.4749M42 83V29.6993M26.0556 5.34081C30.7774 2.50356 36.3294 0.992727 42.0069 1.00003C47.6844 1.00733 53.2316 2.53243 57.9444 5.38181M49.3891 15.349C47.1633 14.1321 44.6106 13.4851 42.0063 13.4779C39.402 13.4707 36.845 14.1035 34.6109 15.308" stroke="#212353" stroke-width="2" stroke-linecap="round" stroke-linejoin="round"/>
</svg>
