<svg width="82" height="82" viewBox="0 0 82 82" fill="none" xmlns="http://www.w3.org/2000/svg">
<path d="M46.125 7.32143C46.125 5.37967 45.585 3.51743 44.6239 2.1444C43.6628 0.771363 42.3592 0 41 0C39.6408 0 38.3372 0.771363 37.3761 2.1444C36.415 3.51743 35.875 5.37967 35.875 7.32143C35.875 9.26319 36.415 11.1254 37.3761 12.4985C38.3372 13.8715 39.6408 14.6429 41 14.6429C42.3592 14.6429 43.6628 13.8715 44.6239 12.4985C45.585 11.1254 46.125 9.26319 46.125 7.32143ZM18.45 32.2143C19.8092 32.2143 21.1128 31.4429 22.0739 30.0699C23.035 28.6969 23.575 26.8346 23.575 24.8929C23.575 22.9511 23.035 21.0889 22.0739 19.7158C21.1128 18.3428 19.8092 17.5714 18.45 17.5714C17.0908 17.5714 15.7872 18.3428 14.8261 19.7158C13.865 21.0889 13.325 22.9511 13.325 24.8929C13.325 26.8346 13.865 28.6969 14.8261 30.0699C15.7872 31.4429 17.0908 32.2143 18.45 32.2143ZM4.1 70.2857C1.83219 70.2857 0 72.9031 0 76.1429C0 79.3826 1.83219 82 4.1 82H77.9C80.1678 82 82 79.3826 82 76.1429C82 72.9031 80.1678 70.2857 77.9 70.2857H4.1ZM63.55 32.2143C64.9092 32.2143 66.2128 31.4429 67.1739 30.0699C68.135 28.6969 68.675 26.8346 68.675 24.8929C68.675 22.9511 68.135 21.0889 67.1739 19.7158C66.2128 18.3428 64.9092 17.5714 63.55 17.5714C62.1908 17.5714 60.8872 18.3428 59.9261 19.7158C58.965 21.0889 58.425 22.9511 58.425 24.8929C58.425 26.8346 58.965 28.6969 59.9261 30.0699C60.8872 31.4429 62.1908 32.2143 63.55 32.2143ZM25.625 51.5246L29.0716 60.658C29.8787 62.7996 31.7366 63.5866 33.2356 62.4518C34.7347 61.317 35.2856 58.6446 34.4912 56.5031L29.8403 44.1482C30.0581 43.8371 30.2503 43.4893 30.3912 43.0866L33.825 33.9531V43.9286C33.825 47.1683 35.6572 49.7857 37.925 49.7857H44.075C46.3428 49.7857 48.175 47.1683 48.175 43.9286V33.9531L51.6216 43.0866C51.7753 43.4893 51.9547 43.8371 52.1725 44.1482L47.5216 56.5031C46.7144 58.6446 47.2781 61.2987 48.7772 62.4518C50.2762 63.6049 52.1341 62.7996 52.9412 60.658L56.375 51.5246V58.5714C56.375 61.8112 58.2072 64.4286 60.475 64.4286H66.625C68.8928 64.4286 70.725 61.8112 70.725 58.5714V51.5246L74.1716 60.658C74.9788 62.7996 76.8366 63.5866 78.3356 62.4518C79.8347 61.317 80.3856 58.6446 79.5912 56.5031L74.7353 43.6357C72.775 38.4192 68.9569 35.1612 64.8056 35.1612H62.2944C60.2059 35.1612 58.2072 35.9848 56.4775 37.4674L52.1725 26.0643C50.2122 20.8478 46.3941 17.5897 42.2428 17.5897H39.7444C35.5931 17.5897 31.7878 20.8478 29.8147 26.0643L25.5097 37.4674C23.78 35.9848 21.7812 35.1612 19.6928 35.1612H17.1944C13.0431 35.1612 9.23781 38.4192 7.26469 43.6357L2.42156 56.4848C1.61437 58.6263 2.17812 61.2804 3.67719 62.4335C5.17625 63.5866 7.03406 62.7812 7.84125 60.6397L11.275 51.5246V58.5714C11.275 61.8112 13.1072 64.4286 15.375 64.4286H21.525C23.7928 64.4286 25.625 61.8112 25.625 58.5714V51.5246Z" fill="#6468A6"/>
</svg>
