<svg width="82" height="82" viewBox="0 0 82 82" fill="none" xmlns="http://www.w3.org/2000/svg">
<path d="M41 32.9424C44.9284 32.9424 48.1321 36.5236 48.1321 41C48.1321 45.2633 44.9284 48.887 41 48.887C37.0716 48.887 33.8679 45.2633 33.8679 41C33.8679 36.5236 37.0716 32.9424 41 32.9424ZM23.3414 75.1061C25.7442 76.7262 31.0074 74.2535 37.0716 67.8586C35.0884 65.3433 33.1433 62.6148 31.3126 59.7584C28.2394 59.4272 25.1839 58.9149 22.1591 58.2236C20.214 67.347 20.9386 73.614 23.3414 75.1061ZM26.0493 50.635L24.9433 48.4607C24.5237 49.6971 24.1042 50.9334 23.8372 52.1271C24.867 52.3829 26.0112 52.5961 27.1935 52.8093L26.0493 50.635ZM50.9926 47.3949L54.0819 41L50.9926 34.6051C49.8484 32.3456 48.6279 30.3418 47.5219 28.3381C45.4623 28.2102 43.2884 28.2102 41 28.2102C38.7116 28.2102 36.5377 28.2102 34.4781 28.3381C33.3721 30.3418 32.1516 32.3456 31.0074 34.6051L27.9181 41L31.0074 47.3949C32.1516 49.6544 33.3721 51.6582 34.4781 53.6619C36.5377 53.7898 38.7116 53.7898 41 53.7898C43.2884 53.7898 45.4623 53.7898 47.5219 53.6619C48.6279 51.6582 49.8484 49.6544 50.9926 47.3949ZM41 18.7457C40.2753 19.6837 39.5126 20.6642 38.7498 21.8153H43.2502C42.4874 20.6642 41.7247 19.6837 41 18.7457ZM41 63.2543C41.7247 62.3163 42.4874 61.3358 43.2502 60.1847H38.7498C39.5126 61.3358 40.2753 62.3163 41 63.2543ZM58.6205 6.89385C56.2558 5.2738 50.9926 7.7465 44.9284 14.1414C46.9116 16.6567 48.8567 19.3852 50.6874 22.2416C53.8149 22.5827 56.9042 23.0943 59.8409 23.7764C61.786 14.653 61.0614 8.38599 58.6205 6.89385ZM55.9507 31.365L57.0567 33.5393C57.4763 32.3029 57.8958 31.0666 58.1628 29.8729C57.133 29.6171 55.9888 29.4039 54.8065 29.1907L55.9507 31.365ZM61.4809 1.30896C67.0874 4.89011 67.6977 14.3119 65.333 25.3112C75.0205 28.5086 82 33.7951 82 41C82 48.2049 75.0205 53.4914 65.333 56.6888C67.6977 67.6881 67.0874 77.1099 61.4809 80.691C55.9126 84.2722 48.3228 80.1794 41 72.3777C33.6772 80.1794 26.0874 84.2722 20.4809 80.691C14.9126 77.1099 14.3023 67.6881 16.667 56.6888C6.97953 53.4914 0 48.2049 0 41C0 33.7951 6.97953 28.5086 16.667 25.3112C14.3023 14.3119 14.9126 4.89011 20.4809 1.30896C26.0874 -2.27218 33.6772 1.82056 41 9.62234C48.3228 1.82056 55.9126 -2.27218 61.4809 1.30896ZM60.3749 41C61.6716 44.1974 62.8158 47.3949 63.7693 50.635C71.7786 47.9491 76.2791 44.1122 76.2791 41C76.2791 37.8878 71.7786 34.0509 63.7693 31.365C62.8158 34.6051 61.6716 37.8025 60.3749 41ZM21.6251 41C20.3284 37.8025 19.1842 34.6051 18.2307 31.365C10.2214 34.0509 5.72093 37.8878 5.72093 41C5.72093 44.1122 10.2214 47.9491 18.2307 50.635C19.1842 47.3949 20.3284 44.1974 21.6251 41ZM55.9507 50.635L54.8065 52.8093C55.9888 52.5961 57.133 52.3829 58.1628 52.1271C57.8958 50.9334 57.4763 49.6971 57.0567 48.4607L55.9507 50.635ZM44.9284 67.8586C50.9926 74.2535 56.2558 76.7262 58.6205 75.1061C61.0614 73.614 61.786 67.347 59.8409 58.2236C56.9042 58.9057 53.8149 59.4173 50.6874 59.7584C48.8567 62.6148 46.9116 65.3433 44.9284 67.8586ZM26.0493 31.365L27.1935 29.1907C26.0112 29.4039 24.867 29.6171 23.8372 29.8729C24.1042 31.0666 24.5237 32.3029 24.9433 33.5393L26.0493 31.365ZM37.0716 14.1414C31.0074 7.7465 25.7442 5.2738 23.3414 6.89385C20.9386 8.38599 20.214 14.653 22.1591 23.7764C25.1839 23.0851 28.2394 22.5728 31.3126 22.2416C33.1433 19.3852 35.0884 16.6567 37.0716 14.1414Z" fill="#6468A6"/>
</svg>
