<svg width="82" height="82" viewBox="0 0 82 82" fill="none" xmlns="http://www.w3.org/2000/svg">
<path d="M70.2131 18.0373C69.6992 18.6073 69.0353 18.9297 68.3435 18.9452H2.64087C0.307963 18.9452 -0.868741 15.6666 0.746663 13.7499L11.5379 0.948268C12.0394 0.352389 12.7063 0.0133931 13.4034 0H79.3643C81.7178 0 82.8699 3.30885 81.2339 5.23565L70.2131 18.0373ZM70.2131 81.1173C69.6963 81.6782 69.0327 81.9915 68.3435 82H2.64087C0.307963 82 -0.868741 78.7466 0.746663 76.8249L11.5379 63.993C12.0416 63.4056 12.7094 63.0788 13.4034 63.08H79.3643C81.7178 63.08 82.8699 66.3586 81.2339 68.2804L70.2131 81.1173ZM70.2131 32.4378C69.6963 31.877 69.0327 31.5637 68.3435 31.5551H2.64087C0.307963 31.5551 -0.868741 34.8085 0.746663 36.7252L11.5379 49.5622C12.0507 50.131 12.713 50.4534 13.4034 50.4701H79.3643C81.7178 50.4701 82.8699 47.1915 81.2339 45.2748L70.2131 32.4378Z" fill="#6468A6"/>
</svg>
