<svg width="27" height="27" viewBox="0 0 27 27" fill="none" xmlns="http://www.w3.org/2000/svg">
<path d="M14.0077 21.1982L19.8226 24.8902C20.5725 25.3633 21.4956 24.6595 21.2763 23.7941L19.5919 17.1716C19.5463 16.988 19.5535 16.7953 19.6127 16.6157C19.6719 16.436 19.7807 16.2768 19.9264 16.1563L25.1414 11.8066C25.8222 11.2412 25.476 10.099 24.5876 10.0413L17.7804 9.60289C17.5947 9.59209 17.4161 9.52741 17.2666 9.41677C17.117 9.30612 17.0029 9.1543 16.9382 8.97986L14.3999 2.58803C14.3327 2.40332 14.2103 2.24376 14.0493 2.131C13.8883 2.01825 13.6966 1.95776 13.5 1.95776C13.3034 1.95776 13.1117 2.01825 12.9507 2.131C12.7897 2.24376 12.6673 2.40332 12.6001 2.58803L10.0618 8.97986C9.9971 9.1543 9.883 9.30612 9.73343 9.41677C9.58385 9.52741 9.40529 9.59209 9.21955 9.60289L2.41237 10.0413C1.52397 10.099 1.17784 11.2412 1.85856 11.8066L7.07356 16.1563C7.21932 16.2768 7.32806 16.436 7.38726 16.6157C7.44645 16.7953 7.4537 16.988 7.40815 17.1716L5.85057 23.3096C5.58521 24.3479 6.69282 25.1902 7.58121 24.6248L12.9923 21.1982C13.1441 21.1017 13.3202 21.0504 13.5 21.0504C13.6798 21.0504 13.8559 21.1017 14.0077 21.1982Z" fill="#CCAC00" stroke="#CCAC00" stroke-width="2" stroke-linecap="round" stroke-linejoin="round"/>
</svg>
